<svg width="18" height="18" viewBox="0 0 18 18" fill="none" xmlns="http://www.w3.org/2000/svg">
<path d="M0 9.00984C0 4.18326 3.84443 0.219971 8.64508 0.219971C13.4457 0.219971 17.2901 4.18326 17.2901 9.00984C17.2901 13.8364 13.4457 17.7801 8.64508 17.7801C3.84443 17.7801 0 13.8364 0 9.00984ZM8.64508 15.563C12.0992 15.563 14.8703 12.6592 14.8703 9.00984C14.8703 5.3801 12.0992 2.45668 8.64508 2.45668C5.22998 2.45668 2.45888 5.36048 2.45888 9.00984C2.45888 12.6396 5.22998 15.563 8.64508 15.563Z" fill="black"/>
<path d="M4.25464 9.00995C4.25464 6.55741 6.20612 4.55615 8.64548 4.55615C11.0848 4.55615 13.0363 6.57703 13.0363 9.00995C13.0363 11.4625 11.0848 13.4637 8.64548 13.4637C6.20612 13.4441 4.25464 11.4429 4.25464 9.00995Z" fill="#E83131"/>
</svg>
